<svg id="marker" viewBox="0 0 69.287003 90.000038">
  <path d="M 17.318,3.8146973e-5 0,29.996038 l 17.318,29.996 17.326,30.008 17.324,-30.008 17.319,-29.996 L 51.968,3.8146973e-5 l -34.634,0 -0.02,0 z M 22.259,8.5683381 l 24.752,0 12.377,21.4279999 -12.377,21.428 -24.752,0 -12.375,-21.428 12.375,-21.4279999 z"/>
  <path d="m 33.726,16.076038 0,10.311 -10.504,0.061 0.178,17.469 22.648,-0.061 -0.04,-27.779 -12.283,0 z m 3.572,4.8321 5.145,0 0,2 -5.145,0 0,-2 z m 0,5.1562 5.145,0 0,2 -5.145,0 0,-2 z m -10.605,5.1563 5.142,0 0,2 -5.142,0 0,-2 z m 10.605,0 5.145,0 0,2 -5.145,0 0,-2 z m -10.605,5.1562 5.142,0 0,2 -5.142,0 0,-2 z m 10.605,0 5.145,0 0,2 -5.145,0 0,-2 z"/>
</svg>
