<svg id="france" viewBox="0 0 95.00692 96.05533">
  <path d="m 93.556922,72.868113 -5.6,-6.6 c -0.5,-0.6 -0.6,-1.5 -0.2,-2.2 l 1.6,-2.5 c 0.3,-0.5 0.4,-1.2 0.1,-1.8 l -4.1,-9.7 c -0.2,-0.4 -0.5,-0.6 -0.9,-0.5 -1.4,0.4 -1.7,-0.5 -0.8,-1.4 l 7,-9 c 0.2,-0.3 0.3,-0.6 0.4,-0.9 l 2.3,-14.2 c 0.1,-0.9 -0.4,-1.8 -1.3,-2.1 l -24,-8 c -0.2,-0.1 -0.5,-0.2 -0.6,-0.4 l -14,-12.1000004 c -0.8,-0.70000004 -2,-0.60000004 -2.7,0.2 l -0.1,0.1 -3.5,4.8 -0.1,0.1 -10.1,11.4000004 c -0.5,0.6 -1.4,0.8 -2.2,0.5 l -9.5,-4.3 c -1,-0.4 -2.1,0 -2.5,0.9 -0.1,0.3 -0.2,0.6 -0.2,0.9 l 0.4,8.2 c 0.1,1 -0.7,1.9 -1.8,2 l -0.2,0 -16.2000001,-1.4 c -0.9,-0.1 -1.6,0.4 -1.9,1.2 l -1.7,4.7 c -0.39999996,0.9 0,1.9 0.8,2.3 l 16.8000001,8.6 c 0.5,0.3 0.9,0.8 1,1.4 l 4.7,26.8 c 0.1,0.3 0,0.7 -0.1,1 l -4.3,11.2 c -0.4,1 0.1,2.1 1.1,2.4 l 0.1,0 35.7,10.5 c 0.9,0.3 1.9,-0.2 2.3,-1.1 l 4.5,-10.4 c 0.4,-0.9 1.4,-1.3 2.3,-1.1 l 15.5,4.5 c 0.7,0.2 1.5,0 2,-0.6 l 10,-11.3 c 0.6,-0.4 0.6,-1.5 0,-2.1 z"/>
</svg>
